<svg width="32" height="32" viewBox="0 0 32 32" fill="none" xmlns="http://www.w3.org/2000/svg">
<rect width="32" height="32" fill="#1A1A1A"/>
<path d="M7.23438 10.3945C6.85938 10.8945 6.67969 11.5625 6.69531 12.3984H3.57812C3.60938 11.5547 3.75391 10.7539 4.01172 9.99609C4.28516 9.33203 4.71484 8.71875 5.30078 8.15625C5.73828 7.75781 6.25781 7.45312 6.85938 7.24219C7.46094 7.03125 8.19922 6.92578 9.07422 6.92578C10.6992 6.92578 12.0078 7.34766 13 8.19141C14 9.02734 14.5 10.1523 14.5 11.5664C14.5 12.5664 14.2031 13.4102 13.6094 14.0977C13.2344 14.5273 12.8438 14.8203 12.4375 14.9766C12.7422 14.9766 13.1797 15.2383 13.75 15.7617C14.6016 16.5508 15.0273 17.6289 15.0273 18.9961C15.0273 20.4336 14.5273 21.6992 13.5273 22.793C12.5352 23.8789 11.0625 24.4219 9.10938 24.4219C6.70312 24.4219 5.03125 23.6367 4.09375 22.0664C3.60156 21.2305 3.32812 20.1367 3.27344 18.7852H6.55469C6.55469 19.4648 6.66406 20.0273 6.88281 20.4727C7.28906 21.293 8.02734 21.7031 9.09766 21.7031C9.75391 21.7031 10.3242 21.4805 10.8086 21.0352C11.3008 20.582 11.5469 19.9336 11.5469 19.0898C11.5469 17.9727 11.0938 17.2266 10.1875 16.8516C9.67188 16.6406 8.85938 16.5352 7.75 16.5352V14.1445C8.83594 14.1289 9.59375 14.0234 10.0234 13.8281C10.7656 13.5 11.1367 12.8359 11.1367 11.8359C11.1367 11.1875 10.9453 10.6602 10.5625 10.2539C10.1875 9.84766 9.65625 9.64453 8.96875 9.64453C8.17969 9.64453 7.60156 9.89453 7.23438 10.3945ZM22.6094 24.4219C20.4453 24.4219 18.9258 23.6641 18.0508 22.1484C17.1836 20.6328 16.75 18.4727 16.75 15.668C16.75 12.8633 17.1836 10.6992 18.0508 9.17578C18.9258 7.65234 20.4453 6.89062 22.6094 6.89062C24.7734 6.89062 26.293 7.65234 27.168 9.17578C28.0352 10.6992 28.4688 12.8633 28.4688 15.668C28.4688 18.4727 28.0312 20.6328 27.1562 22.1484C26.2891 23.6641 24.7734 24.4219 22.6094 24.4219ZM24.5664 20.1445C24.8711 19.1133 25.0234 17.6211 25.0234 15.668C25.0234 13.6211 24.8672 12.1055 24.5547 11.1211C24.25 10.1367 23.6016 9.64453 22.6094 9.64453C21.6172 9.64453 20.9609 10.1367 20.6406 11.1211C20.3203 12.1055 20.1602 13.6211 20.1602 15.668C20.1602 17.6211 20.3203 19.1172 20.6406 20.1562C20.9609 21.1875 21.6172 21.7031 22.6094 21.7031C23.6016 21.7031 24.2539 21.1836 24.5664 20.1445Z" fill="#00BBFF"/>
</svg>
